<svg xmlns="http://www.w3.org/2000/svg" width="400" height="400" viewBox="-125 -125 250 250" fill="none" version="1.1" xmlns:xlink="http://www.w3.org/1999/xlink">

    <path d="M 25.98076211353316 14.999999999999998 L 25.877056330086997 14.94298684938791 L 25.56222402846051 14.781180503400153 L 25.032624442665014 14.529242365426223 L 24.287260427404526 14.202691009100876 L 23.327831080859898 13.817611876871347 L 22.15874463429781 13.390360445410238 L 20.787091248607553 12.93726370945593 L 19.222575979774753 12.474324852011513 L 17.477412793734278 12.016935907779974 L 15.566181116289949 11.579603089263436 L 13.505646986337362 11.175689233320265 L 11.314551431322878 10.81717754354035 L 9.01336919406239 10.514460455069077 L 6.6240414017078795 10.276157039035287 L 4.169686173530671 10.10896190002741 L 1.6742915079071463 10.017528009482124 L -0.8376049349591406 10.004385368508325 L -3.3412443338073325 10.069896814285041 L -5.811978540692941 10.212251683939092 L -8.225600247113183 10.427497438250102 L -10.558666506036618 10.709608734348096 L -12.788810737554764 11.050592831491224 L -14.895038525370083 11.440629626636355 L -16.858002763940505 11.86824405616451 L -18.660254037844382 12.320508075688776 L -20.286462500751888 12.783268949680963 L -21.723607965224076 13.24140015433127 L -22.96113540943199 13.679070827411014 L -23.991073645015767 14.0800293938225 L -24.808115463230614 14.427896759853699 L -25.409658175248396 14.706464306672764 L -25.795804077592994 14.899991826906788 L -25.96932099552228 14.993500538661227 L -25.935563675961333 14.973056379241555 L -25.702357407625957 14.826038925104587 L -25.279845829738885 14.541391502953871 L -24.680305443074783 14.109848345990425 L -23.917929849312483 13.524135004607247 L -23.008587208795934 12.77913863669686 L -21.969554815543063 11.872045272691132 L -20.81923503530033 10.802441667079044 L -19.57685713220491 9.572379903321442 L -18.262169717829067 8.186403504058749 L -16.895128689815053 6.651534404072449 L -15.49558558391811 4.977220760070826 L -14.08298124222187 3.1752461892997683 L -12.676049601966517 1.2596016384867328 L -11.292536235441982 -0.7536783239083942 L -9.9489360245463 -2.846712435074794 L -8.660254037844389 -4.999999999999995 L -7.439793298316986 -7.19267512034585 L -6.298972692507345 -9.40278409109484 L -5.247177783405245 -11.607581794177996 L -4.2916467579076185 -13.783842611433732 L -3.437393173494434 -15.908181142224414 L -2.6871665768346062 -17.957377847623352 L -2.0414514587697266 -19.90870465589222 L -1.4985043951504604 -21.740245554408755 L -1.0544286110601977 -23.431207261468604 L -0.7032846067420682 -24.96221521644059 L -0.4372349065352523 -26.315590346355393 L -0.24672044645599378 -27.475602357742336 L -0.12066561036384194 -28.42869565985734 L -0.046708466936214776 -29.16368444378491 L -0.011452357175478767 -29.67191391470352 L -0.0007346412608395525 -29.94738519447221 L 0.00009186037513941869 -29.986841970485496 L 0.005869399485284532 -29.789817555695134 L 0.03134260180351234 -29.358641634580437 L 0.090867385597182 -28.69840659110212 L 0.19812631857401009 -27.816893937558227 L 0.36585513198855857 -26.72446197800802 L 0.6055849327140219 -25.433896436903673 L 0.9274044034565865 -23.960226353412004 L 1.3397459621556091 -22.320508075688778 L 1.8491994689818707 -20.533580678723037 L 2.4603566292709145 -18.619796566636584 L 3.1756887501722195 -16.600731398659253 L 3.995459975518854 -14.498877791489631 L 4.917677555865147 -12.337327494500636 L 5.938080117785182 -10.13944690445967 L 7.050164287755147 -7.928550880470513 L 8.245249410897994 -5.727579836263969 L 9.512579493287257 -3.5587850255529125 L 10.839460898078071 -1.4434267979274322 L 12.211433749936765 0.5985096100812415 L 13.612474458207886 2.548576468211535 L 15.025226265613922 4.390100200181001 L 16.431254274024273 6.108388768052766 L 17.81132099918787 7.690906741984979 L 19.145678168654 9.127415517911038 L 20.41437020678889 10.410076698655702 L 21.597544652151104 11.533517237351353 L 22.675764628704485 12.494855546568903 L 23.63031844543411 13.29368839278119 L 24.443521429684456 13.932039013910373 L 25.099005207532723 14.41426750803006 L 25.581989828098042 14.746945134175709 L 25.879534385030222 14.938694732322297 L 25.98076211353316 14.999999999999998 Z" stroke="red"></path>
    <circle cx="25.98076211353316" cy="14.999999999999998" r="1" fill="black"></circle>
<circle cx="25.877056330086997" cy="14.94298684938791" r="1" fill="black"></circle>
<circle cx="25.56222402846051" cy="14.781180503400153" r="1" fill="black"></circle>
<circle cx="25.032624442665014" cy="14.529242365426223" r="1" fill="black"></circle>
<circle cx="24.287260427404526" cy="14.202691009100876" r="1" fill="black"></circle>
<circle cx="23.327831080859898" cy="13.817611876871347" r="1" fill="black"></circle>
<circle cx="22.15874463429781" cy="13.390360445410238" r="1" fill="black"></circle>
<circle cx="20.787091248607553" cy="12.93726370945593" r="1" fill="black"></circle>
<circle cx="19.222575979774753" cy="12.474324852011513" r="1" fill="black"></circle>
<circle cx="17.477412793734278" cy="12.016935907779974" r="1" fill="black"></circle>
<circle cx="15.566181116289949" cy="11.579603089263436" r="1" fill="black"></circle>
<circle cx="13.505646986337362" cy="11.175689233320265" r="1" fill="black"></circle>
<circle cx="11.314551431322878" cy="10.81717754354035" r="1" fill="black"></circle>
<circle cx="9.01336919406239" cy="10.514460455069077" r="1" fill="black"></circle>
<circle cx="6.6240414017078795" cy="10.276157039035287" r="1" fill="black"></circle>
<circle cx="4.169686173530671" cy="10.10896190002741" r="1" fill="black"></circle>
<circle cx="1.6742915079071463" cy="10.017528009482124" r="1" fill="black"></circle>
<circle cx="-0.8376049349591406" cy="10.004385368508325" r="1" fill="black"></circle>
<circle cx="-3.3412443338073325" cy="10.069896814285041" r="1" fill="black"></circle>
<circle cx="-5.811978540692941" cy="10.212251683939092" r="1" fill="black"></circle>
<circle cx="-8.225600247113183" cy="10.427497438250102" r="1" fill="black"></circle>
<circle cx="-10.558666506036618" cy="10.709608734348096" r="1" fill="black"></circle>
<circle cx="-12.788810737554764" cy="11.050592831491224" r="1" fill="black"></circle>
<circle cx="-14.895038525370083" cy="11.440629626636355" r="1" fill="black"></circle>
<circle cx="-16.858002763940505" cy="11.86824405616451" r="1" fill="black"></circle>
<circle cx="-18.660254037844382" cy="12.320508075688776" r="1" fill="black"></circle>
<circle cx="-20.286462500751888" cy="12.783268949680963" r="1" fill="black"></circle>
<circle cx="-21.723607965224076" cy="13.24140015433127" r="1" fill="black"></circle>
<circle cx="-22.96113540943199" cy="13.679070827411014" r="1" fill="black"></circle>
<circle cx="-23.991073645015767" cy="14.0800293938225" r="1" fill="black"></circle>
<circle cx="-24.808115463230614" cy="14.427896759853699" r="1" fill="black"></circle>
<circle cx="-25.409658175248396" cy="14.706464306672764" r="1" fill="black"></circle>
<circle cx="-25.795804077592994" cy="14.899991826906788" r="1" fill="black"></circle>
<circle cx="-25.96932099552228" cy="14.993500538661227" r="1" fill="black"></circle>
<circle cx="-25.935563675961333" cy="14.973056379241555" r="1" fill="black"></circle>
<circle cx="-25.702357407625957" cy="14.826038925104587" r="1" fill="black"></circle>
<circle cx="-25.279845829738885" cy="14.541391502953871" r="1" fill="black"></circle>
<circle cx="-24.680305443074783" cy="14.109848345990425" r="1" fill="black"></circle>
<circle cx="-23.917929849312483" cy="13.524135004607247" r="1" fill="black"></circle>
<circle cx="-23.008587208795934" cy="12.77913863669686" r="1" fill="black"></circle>
<circle cx="-21.969554815543063" cy="11.872045272691132" r="1" fill="black"></circle>
<circle cx="-20.81923503530033" cy="10.802441667079044" r="1" fill="black"></circle>
<circle cx="-19.57685713220491" cy="9.572379903321442" r="1" fill="black"></circle>
<circle cx="-18.262169717829067" cy="8.186403504058749" r="1" fill="black"></circle>
<circle cx="-16.895128689815053" cy="6.651534404072449" r="1" fill="black"></circle>
<circle cx="-15.49558558391811" cy="4.977220760070826" r="1" fill="black"></circle>
<circle cx="-14.08298124222187" cy="3.1752461892997683" r="1" fill="black"></circle>
<circle cx="-12.676049601966517" cy="1.2596016384867328" r="1" fill="black"></circle>
<circle cx="-11.292536235441982" cy="-0.7536783239083942" r="1" fill="black"></circle>
<circle cx="-9.9489360245463" cy="-2.846712435074794" r="1" fill="black"></circle>
<circle cx="-8.660254037844389" cy="-4.999999999999995" r="1" fill="black"></circle>
<circle cx="-7.439793298316986" cy="-7.19267512034585" r="1" fill="black"></circle>
<circle cx="-6.298972692507345" cy="-9.40278409109484" r="1" fill="black"></circle>
<circle cx="-5.247177783405245" cy="-11.607581794177996" r="1" fill="black"></circle>
<circle cx="-4.2916467579076185" cy="-13.783842611433732" r="1" fill="black"></circle>
<circle cx="-3.437393173494434" cy="-15.908181142224414" r="1" fill="black"></circle>
<circle cx="-2.6871665768346062" cy="-17.957377847623352" r="1" fill="black"></circle>
<circle cx="-2.0414514587697266" cy="-19.90870465589222" r="1" fill="black"></circle>
<circle cx="-1.4985043951504604" cy="-21.740245554408755" r="1" fill="black"></circle>
<circle cx="-1.0544286110601977" cy="-23.431207261468604" r="1" fill="black"></circle>
<circle cx="-0.7032846067420682" cy="-24.96221521644059" r="1" fill="black"></circle>
<circle cx="-0.4372349065352523" cy="-26.315590346355393" r="1" fill="black"></circle>
<circle cx="-0.24672044645599378" cy="-27.475602357742336" r="1" fill="black"></circle>
<circle cx="-0.12066561036384194" cy="-28.42869565985734" r="1" fill="black"></circle>
<circle cx="-0.046708466936214776" cy="-29.16368444378491" r="1" fill="black"></circle>
<circle cx="-0.011452357175478767" cy="-29.67191391470352" r="1" fill="black"></circle>
<circle cx="-0.0007346412608395525" cy="-29.94738519447221" r="1" fill="black"></circle>
<circle cx="0.00009186037513941869" cy="-29.986841970485496" r="1" fill="black"></circle>
<circle cx="0.005869399485284532" cy="-29.789817555695134" r="1" fill="black"></circle>
<circle cx="0.03134260180351234" cy="-29.358641634580437" r="1" fill="black"></circle>
<circle cx="0.090867385597182" cy="-28.69840659110212" r="1" fill="black"></circle>
<circle cx="0.19812631857401009" cy="-27.816893937558227" r="1" fill="black"></circle>
<circle cx="0.36585513198855857" cy="-26.72446197800802" r="1" fill="black"></circle>
<circle cx="0.6055849327140219" cy="-25.433896436903673" r="1" fill="black"></circle>
<circle cx="0.9274044034565865" cy="-23.960226353412004" r="1" fill="black"></circle>
<circle cx="1.3397459621556091" cy="-22.320508075688778" r="1" fill="black"></circle>
<circle cx="1.8491994689818707" cy="-20.533580678723037" r="1" fill="black"></circle>
<circle cx="2.4603566292709145" cy="-18.619796566636584" r="1" fill="black"></circle>
<circle cx="3.1756887501722195" cy="-16.600731398659253" r="1" fill="black"></circle>
<circle cx="3.995459975518854" cy="-14.498877791489631" r="1" fill="black"></circle>
<circle cx="4.917677555865147" cy="-12.337327494500636" r="1" fill="black"></circle>
<circle cx="5.938080117785182" cy="-10.13944690445967" r="1" fill="black"></circle>
<circle cx="7.050164287755147" cy="-7.928550880470513" r="1" fill="black"></circle>
<circle cx="8.245249410897994" cy="-5.727579836263969" r="1" fill="black"></circle>
<circle cx="9.512579493287257" cy="-3.5587850255529125" r="1" fill="black"></circle>
<circle cx="10.839460898078071" cy="-1.4434267979274322" r="1" fill="black"></circle>
<circle cx="12.211433749936765" cy="0.5985096100812415" r="1" fill="black"></circle>
<circle cx="13.612474458207886" cy="2.548576468211535" r="1" fill="black"></circle>
<circle cx="15.025226265613922" cy="4.390100200181001" r="1" fill="black"></circle>
<circle cx="16.431254274024273" cy="6.108388768052766" r="1" fill="black"></circle>
<circle cx="17.81132099918787" cy="7.690906741984979" r="1" fill="black"></circle>
<circle cx="19.145678168654" cy="9.127415517911038" r="1" fill="black"></circle>
<circle cx="20.41437020678889" cy="10.410076698655702" r="1" fill="black"></circle>
<circle cx="21.597544652151104" cy="11.533517237351353" r="1" fill="black"></circle>
<circle cx="22.675764628704485" cy="12.494855546568903" r="1" fill="black"></circle>
<circle cx="23.63031844543411" cy="13.29368839278119" r="1" fill="black"></circle>
<circle cx="24.443521429684456" cy="13.932039013910373" r="1" fill="black"></circle>
<circle cx="25.099005207532723" cy="14.41426750803006" r="1" fill="black"></circle>
<circle cx="25.581989828098042" cy="14.746945134175709" r="1" fill="black"></circle>
<circle cx="25.879534385030222" cy="14.938694732322297" r="1" fill="black"></circle>
<circle cx="25.98076211353316" cy="14.999999999999998" r="1" fill="black"></circle>
    
</svg>