<svg xmlns="http://www.w3.org/2000/svg" width="400" height="400" viewBox="-100 -100 200 200" fill="none" version="1.1" xmlns:xlink="http://www.w3.org/1999/xlink">
 <defs>
    <radialGradient id="bgGradient" cx="50%" cy="50%" r="50%" fx="50%" fy="50%">
        <stop offset="50%" style="stop-color:#F5F7FF;stop-opacity:1" />
        <stop offset="200%" style="stop-color:#bdf;stop-opacity:1" />
    </radialGradient>
</defs>
<circle cx="0" cy="0" r="70" fill="url(#bgGradient)"></circle>

    <path d="M 42.42640687119285 42.426406871192846 L 42.16524255368277 42.18624880115264 L 41.347136799643664 41.51419391642778 L 39.9325034324271 40.49077446330342 L 37.899462114252685 39.204552601349384 L 35.24489759720667 37.74877661287308 L 31.98486661287852 36.21788935209978 L 28.154336816097267 34.70401336668458 L 23.80626581622221 33.29353787560766 L 19.01005166763906 32.06392910160828 L 13.849408422903597 31.08087746395568 L 8.419740689921593 30.395883121984454 L 2.825108858293497 30.044365747411717 L -2.8251088582934862 30.044365747411724 L -8.419740689921584 30.395883121984458 L -13.84940842290357 31.080877463955677 L -19.010051667639065 32.063929101608274 L -23.806265816222215 33.29353787560766 L -28.154336816097263 34.70401336668458 L -31.984866612878502 36.217889352099775 L -35.244897597206666 37.74877661287309 L -37.89946211425268 39.20455260134939 L -39.93250343242708 40.49077446330342 L -41.34713679964364 41.51419391642777 L -42.16524255368276 42.18624880115264 L -42.426406871192846 42.42640687119285 L -42.18624880115263 42.165242553682766 L -41.51419391642778 41.347136799643664 L -40.49077446330341 39.93250343242709 L -39.204552601349384 37.899462114252685 L -37.748776612873094 35.24489759720669 L -36.21788935209978 31.984866612878523 L -34.70401336668457 28.154336816097267 L -33.293537875607655 23.806265816222204 L -32.063929101608274 19.010051667639043 L -31.08087746395568 13.8494084229036 L -30.395883121984454 8.419740689921586 L -30.044365747411717 2.8251088582934827 L -30.044365747411717 -2.8251088582934614 L -30.395883121984454 -8.419740689921557 L -31.08087746395568 -13.849408422903576 L -32.06392910160827 -19.010051667639026 L -33.29353787560766 -23.806265816222215 L -34.704013366684585 -28.154336816097253 L -36.21788935209977 -31.984866612878488 L -37.74877661287309 -35.24489759720666 L -39.204552601349384 -37.89946211425266 L -40.49077446330341 -39.93250343242709 L -41.51419391642776 -41.34713679964366 L -42.18624880115264 -42.16524255368276 L -42.42640687119285 -42.426406871192846 L -42.165242553682766 -42.18624880115263 L -41.34713679964367 -41.51419391642776 L -39.93250343242708 -40.49077446330342 L -37.89946211425269 -39.2045526013494 L -35.24489759720669 -37.748776612873094 L -31.984866612878513 -36.217889352099775 L -28.154336816097288 -34.70401336668458 L -23.80626581622221 -33.29353787560766 L -19.010051667639086 -32.06392910160828 L -13.849408422903647 -31.080877463955687 L -8.419740689921587 -30.395883121984454 L -2.825108858293518 -30.044365747411717 L 2.8251088582934827 -30.044365747411717 L 8.419740689921596 -30.395883121984454 L 13.849408422903574 -31.08087746395568 L 19.01005166763908 -32.06392910160828 L 23.8062658162222 -33.293537875607655 L 28.154336816097302 -34.70401336668459 L 31.984866612878513 -36.21788935209979 L 35.24489759720666 -37.74877661287308 L 37.89946211425269 -39.204552601349405 L 39.932503432427076 -40.49077446330344 L 41.347136799643636 -41.51419391642778 L 42.165242553682766 -42.186248801152644 L 42.426406871192846 -42.42640687119285 L 42.18624880115264 -42.16524255368277 L 41.514193916427786 -41.34713679964366 L 40.49077446330343 -39.9325034324271 L 39.20455260134938 -37.89946211425268 L 37.748776612873094 -35.24489759720669 L 36.217889352099796 -31.984866612878548 L 34.7040133666846 -28.154336816097327 L 33.29353787560765 -23.806265816222176 L 32.063929101608274 -19.010051667639054 L 31.08087746395569 -13.849408422903638 L 30.395883121984454 -8.419740689921609 L 30.044365747411728 -2.8251088582935964 L 30.044365747411717 2.8251088582934347 L 30.395883121984454 8.41974068992159 L 31.08087746395568 13.849408422903569 L 32.06392910160827 19.010051667639008 L 33.29353787560764 23.806265816222137 L 34.70401336668458 28.154336816097246 L 36.21788935209977 31.984866612878506 L 37.748776612873115 35.244897597206666 L 39.204552601349356 37.89946211425266 L 40.4907744633034 39.93250343242709 L 41.51419391642776 41.34713679964366 L 42.186248801152644 42.165242553682766 L 42.42640687119285 42.426406871192846 Z"
    stroke="#627EEA" stroke-width="2"></path>
    <circle cx="42.42640687119285" cy="42.426406871192846" r="2.7" fill="#0F2442"></circle>
<circle cx="-42.426406871192846" cy="42.42640687119285" r="2.7" fill="#0F2442"></circle>
<circle cx="-42.42640687119285" cy="-42.426406871192846" r="2.7" fill="#0F2442"></circle>
<circle cx="42.426406871192846" cy="-42.42640687119285" r="2.7" fill="#0F2442"></circle>
<circle cx="42.42640687119285" cy="42.426406871192846" r="2.7" fill="#0F2442"></circle>
    

    <path d="M 1.83697019872103e-15 30 L -0.0074268300166144335 29.822755770101278 L -0.0590636100617594 29.29590442373764 L -0.19737861583632735 28.43392258266061 L -0.46141916674406513 27.260385831054787 L -0.8852549156242084 25.807161008834502 L -1.4965995419101061 24.113315619223705 L -2.315660351749401 22.22378283422185 L -3.3542572040765575 20.187829197456782 L -4.615242627168841 18.057379072063057 L -6.092244304366992 15.885254915624213 L -7.769739669016539 13.723395406692397 L -9.623460562577073 11.621114193866589 L -11.621114193866587 9.623460562577076 L -13.723395406692395 7.769739669016543 L -15.885254915624204 6.092244304366999 L -18.057379072063057 4.615242627168838 L -20.187829197456786 3.3542572040765566 L -22.22378283422185 2.3156603517494037 L -24.113315619223698 1.496599541910111 L -25.807161008834502 0.8852549156242124 L -27.260385831054787 0.46141916674406847 L -28.433922582660607 0.19737861583632996 L -29.295904423737632 0.05906361006176299 L -29.822755770101274 0.0074268300166151985 L -30 1.8369701987210304e-15 L -29.822755770101274 -0.007426830016611325 L -29.29590442373764 -0.05906361006176073 L -28.433922582660607 -0.19737861583632557 L -27.260385831054787 -0.4614191667440678 L -25.807161008834512 -0.8852549156242076 L -24.113315619223705 -1.4965995419101035 L -22.223782834221847 -2.3156603517494 L -20.18782919745678 -3.3542572040765593 L -18.05737907206305 -4.615242627168846 L -15.885254915624213 -6.09224430436699 L -13.723395406692394 -7.769739669016542 L -11.621114193866584 -9.623460562577078 L -9.623460562577083 -11.621114193866578 L -7.769739669016549 -13.723395406692385 L -6.092244304366998 -15.885254915624206 L -4.6152426271688505 -18.057379072063043 L -3.3542572040765566 -20.187829197456786 L -2.315660351749407 -22.223782834221847 L -1.4965995419101101 -24.11331561922369 L -0.8852549156242142 -25.8071610088345 L -0.461419166744072 -27.260385831054776 L -0.19737861583632552 -28.433922582660607 L -0.059063610061756776 -29.29590442373763 L -0.007426830016614754 -29.822755770101274 L -1.8369701987210304e-15 -30 L 0.007426830016611103 -29.822755770101274 L 0.05906361006175274 -29.295904423737635 L 0.1973786158363318 -28.433922582660607 L 0.4614191667440678 -27.260385831054794 L 0.8852549156242076 -25.80716100883451 L 1.4965995419101044 -24.1133156192237 L 2.315660351749393 -22.223782834221858 L 3.3542572040765575 -20.187829197456782 L 4.615242627168834 -18.057379072063068 L 6.092244304366978 -15.885254915624234 L 7.76973966901654 -13.723395406692394 L 9.623460562577066 -11.621114193866596 L 11.621114193866585 -9.623460562577076 L 13.723395406692399 -7.769739669016537 L 15.885254915624206 -6.092244304366999 L 18.057379072063064 -4.6152426271688345 L 20.187829197456775 -3.3542572040765575 L 22.22378283422187 -2.315660351749394 L 24.113315619223705 -1.4965995419101075 L 25.8071610088345 -0.8852549156242133 L 27.260385831054798 -0.46141916674407113 L 28.43392258266061 -0.19737861583633706 L 29.295904423737632 -0.05906361006176921 L 29.822755770101278 -0.007426830016617863 L 30 -1.836970198721029e-15 L 29.822755770101278 0.007426830016613989 L 29.29590442373764 0.059063610061765616 L 28.433922582660617 0.1973786158363318 L 27.260385831054784 0.461419166744066 L 25.80716100883451 0.8852549156242076 L 24.11331561922372 1.4965995419101 L 22.22378283422188 2.315660351749387 L 20.187829197456765 3.3542572040765655 L 18.057379072063053 4.6152426271688425 L 15.885254915624232 6.092244304366981 L 13.723395406692402 7.769739669016532 L 11.621114193866626 9.62346056257704 L 9.623460562577092 11.621114193866568 L 7.7697396690165395 13.723395406692397 L 6.092244304367001 15.885254915624204 L 4.615242627168854 18.057379072063036 L 3.354257204076576 20.18782919745675 L 2.31566035174941 22.223782834221844 L 1.4965995419101021 24.113315619223695 L 0.8852549156242222 25.80716100883451 L 0.46141916674406314 27.260385831054766 L 0.19737861583632552 28.433922582660603 L 0.059063610061756776 29.29590442373763 L 0.007426830016618085 29.822755770101278 L 1.8369701987210308e-15 30 Z"
    stroke="#627EEA" stroke-width="2"></path>
    <circle cx="1.83697019872103e-15" cy="30" r="2.7" fill="#0F2442"></circle>
<circle cx="-30" cy="1.8369701987210304e-15" r="2.7" fill="#0F2442"></circle>
<circle cx="-1.8369701987210304e-15" cy="-30" r="2.7" fill="#0F2442"></circle>
<circle cx="30" cy="-1.836970198721029e-15" r="2.7" fill="#0F2442"></circle>
<circle cx="1.8369701987210308e-15" cy="30" r="2.7" fill="#0F2442"></circle>
    
</svg>